<svg width="19" height="20" viewBox="0 0 19 20" fill="none" xmlns="http://www.w3.org/2000/svg">
<path d="M18.6716 7.41256C18.6139 7.24274 18.5078 7.09353 18.3663 6.98335C18.2248 6.87316 18.0542 6.80681 17.8754 6.79251L12.6463 6.377L10.3835 1.36798C10.3114 1.20665 10.1942 1.06963 10.046 0.973442C9.89773 0.877257 9.72484 0.826025 9.54815 0.825928C9.37146 0.825831 9.19851 0.876874 9.05019 0.972896C8.90186 1.06892 8.78449 1.20582 8.71225 1.36707L6.44944 6.377L1.22029 6.79251C1.04459 6.80642 0.876632 6.87066 0.736494 6.97754C0.596357 7.08442 0.489977 7.2294 0.430082 7.39516C0.370186 7.56091 0.359312 7.74041 0.39876 7.91218C0.438207 8.08395 0.526306 8.24072 0.652517 8.36373L4.51682 12.1308L3.15015 18.0488C3.10865 18.2279 3.12195 18.4154 3.18832 18.5869C3.25469 18.7584 3.37107 18.9059 3.52236 19.0105C3.67365 19.115 3.85286 19.1716 4.03673 19.173C4.2206 19.1744 4.40065 19.1205 4.55351 19.0183L9.54785 15.6888L14.5422 19.0183C14.6984 19.1221 14.8827 19.1755 15.0702 19.1713C15.2577 19.1672 15.4394 19.1058 15.591 18.9953C15.7425 18.8848 15.8566 18.7306 15.9178 18.5533C15.9791 18.3761 15.9846 18.1843 15.9336 18.0039L14.256 12.1336L18.4166 8.38941C18.689 8.14359 18.789 7.76019 18.6716 7.41256Z" fill="#F3CD03"/>
</svg>
